{"glyphs":{":":{"x_min":0,"x_max":239,"ha":239,"o":"m 64 111 q 81 111 91 101 q 102 90 102 75 q 102 56 89 44 q 77 32 56 32 q 38 32 28 42 q 18 52 18 68 q 18 84 29 96 q 42 111 64 111 z m 126 245 q 144 245 154 234 q 164 224 164 208 q 164 189 152 178 q 140 166 118 166 q 101 166 91 175 q 81 185 81 201 q 81 218 91 229 q 105 245 126 245 z"},"$":{"x_min":0,"x_max":502,"ha":502,"o":"m 136 44 q 183 157 282 317 q 268 333 260 341 q 218 390 218 435 q 218 490 269 531 q 340 587 476 592 q 516 644 536 665 q 558 688 566 688 q 579 688 579 675 q 579 670 576 665 q 574 663 538 621 q 532 615 514 592 q 555 590 599 581 q 616 598 633 612 q 648 625 657 625 q 669 625 669 612 q 669 605 658 596 q 612 553 583 516 q 558 484 519 419 q 512 408 503 408 q 490 408 490 421 q 490 435 544 517 q 553 530 553 537 q 553 558 490 561 q 418 464 342 352 l 339 349 l 350 338 l 360 328 q 406 283 417 268 q 448 229 448 179 q 448 123 398 73 q 356 30 288 7 q 236 -10 180 -10 q 164 -10 148 -8 l 147 -11 l 139 -34 q 120 -87 117 -92 q 112 -102 102 -102 q 89 -102 89 -85 q 89 -74 117 -3 q 65 10 31 39 q 21 21 15 6 q 0 -27 -4 -33 q -9 -40 -16 -40 q -27 -40 -27 -27 q -27 -9 13 73 q 78 204 98 204 q 111 204 111 191 q 111 186 88 150 q 67 115 67 101 q 67 66 136 44 z m 167 37 q 198 31 225 31 q 288 31 335 62 q 364 82 377 106 q 392 134 392 159 q 392 205 339 261 q 336 264 305 295 q 224 169 167 37 z m 450 560 q 383 556 336 529 q 279 497 279 448 q 279 409 317 371 l 336 398 q 397 491 450 560 z"},"?":{"x_min":0,"x_max":428,"ha":428,"o":"m 157 111 q 174 111 184 101 q 194 90 194 75 q 194 56 182 44 q 170 32 148 32 q 131 32 121 42 q 111 52 111 68 q 111 84 122 96 q 135 111 157 111 z m 258 534 q 232 500 210 461 q 203 448 193 448 q 181 448 181 461 q 181 479 228 544 q 285 622 333 661 q 346 670 354 670 q 367 670 367 658 q 367 651 356 642 q 308 600 308 590 q 308 581 319 581 q 323 581 367 590 q 428 603 474 603 q 529 603 560 580 q 586 561 586 532 q 586 496 539 449 q 512 423 357 319 q 252 249 231 221 q 225 212 222 200 q 217 180 204 180 q 189 180 189 197 q 189 220 224 256 q 255 289 389 392 q 509 484 509 527 q 509 568 444 568 q 402 568 340 555 q 262 538 258 534 z"},"<":{"x_min":0,"x_max":580,"ha":580,"o":"m 583 501 l 574 456 l 153 287 l 501 117 l 492 73 l 100 267 l 108 307 z"},"'":{"x_min":0,"x_max":192,"ha":192,"o":"m 301 608 q 324 608 324 586 q 324 567 297 529 q 269 489 229 438 q 207 410 196 410 q 187 410 188 418 q 188 431 229 528 q 249 573 259 586 q 277 608 301 608 z"},"=":{"x_min":0,"x_max":400,"ha":400,"o":"m 261 233 q 244 233 126 229 l 94 228 q 52 228 52 246 q 52 254 58 260 q 66 268 81 268 q 86 268 99 266 q 117 264 145 264 q 171 264 215 267 q 259 270 286 270 q 328 270 328 252 q 328 232 304 232 z m 230 153 q 216 153 95 149 l 63 147 q 21 147 21 166 q 21 174 27 180 q 36 188 50 188 q 56 188 68 186 q 86 184 114 184 q 140 184 184 187 q 229 190 256 190 q 297 190 297 172 q 297 152 273 152 z"},"a":{"x_min":0,"x_max":397,"ha":397,"o":"m 183 346 q 244 363 286 363 q 324 363 345 350 q 369 334 369 303 q 369 279 346 236 q 339 224 307 171 q 251 79 251 72 q 251 60 264 60 q 269 60 297 68 q 322 75 331 75 q 345 75 345 62 q 345 52 330 48 q 272 35 203 3 q 190 -3 184 -3 q 167 -3 167 17 q 167 32 193 81 q 104 35 49 35 q 19 35 2 51 q -15 67 -15 92 q -15 140 36 179 q 123 245 292 252 q 307 277 307 295 q 307 314 290 324 q 276 333 253 333 q 208 333 154 313 q 139 293 130 280 q 123 267 112 267 q 103 267 103 278 q 103 297 167 369 q 204 409 239 433 q 247 438 252 438 q 263 438 263 427 q 263 421 257 415 q 256 414 224 386 q 215 378 183 346 z m 207 108 l 211 116 l 243 167 q 275 221 280 229 q 206 225 145 202 q 92 181 65 155 q 43 134 43 113 q 43 93 62 82 q 73 75 88 75 q 128 75 207 108 z"},"L":{"x_min":0,"x_max":528,"ha":528,"o":"m 420 100 q 432 120 453 146 q 492 195 506 195 q 518 195 518 183 q 518 175 507 164 q 438 92 382 -26 q 376 -40 366 -40 q 354 -40 354 -27 q 354 -17 389 47 q 394 57 394 62 q 394 69 384 69 q 317 69 214 54 q 77 34 -25 -7 q -34 -11 -41 -11 q -50 -11 -50 5 q -50 12 -37 19 q -30 22 38 48 l 41 56 q 92 169 132 244 q 166 304 215 378 q 268 459 305 508 q 311 516 311 521 q 311 529 302 529 q 293 529 267 518 q 242 506 233 506 q 223 506 223 516 q 224 528 235 535 q 284 562 364 584 q 451 609 501 609 q 521 609 521 596 q 521 585 511 583 q 507 582 465 576 q 444 573 420 567 q 374 512 300 404 q 215 276 158 167 q 125 102 125 83 q 125 73 138 73 q 142 73 211 84 q 304 98 420 100 z"},"3":{"x_min":0,"x_max":499,"ha":499,"o":"m 274 319 q 476 306 476 204 q 476 134 382 71 q 268 -6 113 -6 q 40 -6 -10 10 q -21 -12 -42 -58 q -48 -71 -58 -71 q -70 -71 -70 -58 q -70 -47 -50 -5 q -10 79 41 144 q 59 167 67 167 q 81 167 81 153 q 81 148 74 139 q 17 67 17 52 q 17 39 32 35 q 58 28 109 28 q 243 28 330 95 q 405 153 405 208 q 405 255 349 276 q 310 290 226 297 q 201 298 201 312 q 201 322 221 329 q 325 363 367 381 q 497 437 497 493 q 497 538 423 538 q 384 538 329 525 q 299 519 274 508 q 259 488 226 433 q 217 418 208 418 q 195 418 195 431 q 195 440 215 474 q 235 508 259 541 q 300 595 345 634 q 353 641 359 641 q 372 641 372 628 q 372 622 366 617 q 365 615 344 595 q 321 572 321 563 q 321 556 330 556 q 335 556 371 562 q 417 569 458 569 q 502 569 531 557 q 572 540 572 504 q 572 405 274 319 z"},";":{"x_min":0,"x_max":225,"ha":225,"o":"m 40 27 q 11 31 11 58 q 11 79 24 95 q 38 111 57 111 q 72 111 82 100 q 90 89 90 75 q 90 21 18 -54 q -13 -85 -41 -101 q -52 -108 -59 -108 q -70 -108 -70 -98 q -70 -93 -65 -88 q -63 -86 -43 -71 q 17 -25 40 27 z m 115 243 q 132 243 142 232 q 152 222 152 206 q 152 188 140 176 q 128 164 106 164 q 89 164 80 173 q 69 183 69 199 q 69 216 80 228 q 94 243 115 243 z"},"J":{"x_min":0,"x_max":481,"ha":481,"o":"m 595 566 q 538 499 384 248 q 319 140 295 110 q 211 2 83 2 q 35 2 -12 26 q -27 2 -51 -44 q -60 -61 -70 -60 q -80 -59 -80 -48 q -80 -30 -52 16 q 7 113 55 163 q 66 173 75 173 q 86 173 86 161 q 86 154 78 144 q 34 93 21 73 q 17 66 17 59 q 17 52 21 47 q 35 33 68 33 q 167 33 239 132 q 269 173 366 328 l 429 426 l 462 477 q 499 533 499 539 q 499 545 489 545 q 478 545 399 523 q 375 516 375 535 q 375 544 391 550 q 439 569 536 587 q 642 607 683 607 q 701 607 701 593 q 701 583 690 579 q 685 578 644 573 q 618 570 595 566 z"},"V":{"x_min":0,"x_max":617,"ha":617,"o":"m 723 564 q 691 560 667 553 q 624 542 617 542 q 603 542 603 558 q 603 567 615 572 q 647 585 736 601 q 810 614 879 614 q 904 614 904 600 q 904 589 893 586 q 888 584 865 584 q 804 585 778 567 q 742 544 602 400 q 425 220 274 -1 q 263 -18 251 -18 q 236 -18 232 -3 q 230 4 230 95 q 230 167 248 284 q 270 431 308 563 q 265 551 221 530 q 212 526 207 526 q 193 526 193 539 q 193 549 206 556 q 249 582 332 604 q 383 618 437 625 q 467 628 476 626 q 487 625 487 613 q 487 604 478 601 q 473 599 441 595 q 399 590 389 584 q 377 578 368 555 q 341 490 315 340 q 305 282 299 225 q 291 141 291 103 q 291 95 291 79 q 358 177 466 301 q 540 384 621 466 q 685 530 723 564 z"},"\"":{"x_min":0,"x_max":313,"ha":313,"o":"m 318 608 q 339 608 339 590 q 339 569 307 529 q 270 481 229 437 q 206 410 195 410 q 188 410 188 418 q 188 424 204 458 q 236 524 258 562 q 285 608 318 608 z m 424 608 q 445 608 445 590 q 445 569 413 529 q 375 480 335 437 q 312 410 301 410 q 293 410 293 418 q 293 424 310 458 q 342 524 364 562 q 391 608 424 608 z"},"7":{"x_min":0,"x_max":433,"ha":433,"o":"m 38 53 q 239 340 540 553 q 339 537 202 500 q 177 467 156 425 q 149 412 140 412 q 128 412 128 425 q 128 442 161 492 q 218 577 273 624 q 283 632 289 632 q 302 632 302 621 q 302 615 297 608 q 294 606 275 587 q 248 561 248 553 q 248 545 256 545 q 259 545 322 558 q 457 583 629 592 q 643 592 648 592 q 661 590 661 578 q 661 565 646 562 q 643 562 627 562 q 607 561 599 555 q 546 523 450 438 q 298 306 188 155 q 153 107 153 97 q 153 85 165 84 q 170 84 206 87 q 221 88 236 88 q 255 88 255 75 q 255 64 244 61 q 240 60 204 58 q 150 56 106 43 q 69 33 -15 -3 q -23 -7 -29 -7 q -41 -7 -41 5 q -41 14 -30 21 q -24 24 38 53 z"},"S":{"x_min":0,"x_max":513,"ha":513,"o":"m 595 586 l 602 597 q 621 627 633 643 q 643 655 652 655 q 663 655 663 642 q 663 636 658 628 q 657 626 620 565 q 594 525 561 444 q 554 426 546 426 q 530 426 530 438 q 530 454 558 514 q 564 527 564 535 q 564 562 480 562 q 388 562 326 519 q 280 488 280 452 q 280 424 305 392 q 322 371 378 317 q 411 286 431 258 q 453 226 453 187 q 453 122 396 68 q 352 26 285 6 q 240 -7 190 -7 q 125 -7 70 20 q 55 26 34 39 q 15 5 0 -30 q -5 -43 -17 -43 q -27 -43 -27 -31 q -27 -20 -6 23 q 34 106 95 172 q 114 192 124 192 q 136 192 136 180 q 136 174 133 170 q 129 166 110 144 q 79 109 79 93 q 79 81 89 72 q 103 62 127 51 q 173 32 235 32 q 297 32 340 60 q 398 99 398 161 q 398 198 374 229 q 357 251 315 292 q 252 354 237 379 q 219 408 219 435 q 219 492 285 536 q 369 593 516 593 q 558 593 595 586 z"},"}":{"x_min":0,"x_max":343,"ha":343,"o":"m 267 303 q 254 309 251 312 q 234 324 234 351 q 234 359 236 385 q 237 399 237 414 q 237 489 209 545 q 184 596 145 609 q 136 612 108 614 q 96 614 96 625 q 96 634 107 640 q 117 645 131 645 q 159 645 187 626 q 239 594 263 512 q 274 472 274 415 q 275 356 276 348 q 279 329 290 320 q 305 309 305 304 q 305 299 295 291 q 274 273 264 246 q 255 223 232 140 q 194 2 136 -55 q 114 -76 84 -90 q 68 -97 56 -97 q 39 -97 39 -82 q 39 -73 48 -65 q 51 -63 75 -52 q 112 -37 147 27 q 183 94 209 203 q 222 256 229 271 q 238 288 254 296 q 256 298 267 303 z"},"Z":{"x_min":0,"x_max":575,"ha":575,"o":"m 305 534 q 281 502 249 438 q 241 423 232 423 q 219 423 219 436 q 219 459 279 548 q 348 650 371 650 q 382 650 382 639 q 382 631 372 621 q 343 591 343 582 q 343 575 352 575 q 355 575 438 586 q 547 601 670 601 q 708 601 721 598 q 740 593 740 576 q 740 561 712 543 q 538 434 434 358 q 259 230 158 128 q 115 85 115 73 q 115 62 126 62 q 130 62 140 64 q 312 102 452 104 q 519 192 533 192 q 548 192 548 180 q 548 172 538 162 q 468 87 413 -27 q 405 -43 394 -43 q 382 -43 382 -30 q 382 -21 412 38 q 420 55 420 60 q 420 69 409 70 q 389 71 330 65 q 164 48 23 -1 q 7 -7 1 -7 q -13 -7 -13 7 q -13 32 92 142 q 187 241 355 368 q 483 464 583 525 q 619 546 625 551 q 629 553 630 554 q 638 559 638 564 q 638 571 623 571 q 542 571 416 553 q 343 543 305 534 z"},"x":{"x_min":0,"x_max":488,"ha":488,"o":"m 257 237 l 282 252 l 307 267 q 370 305 372 307 q 375 310 375 314 q 375 322 366 322 q 354 322 311 313 q 305 312 299 312 q 287 312 287 323 q 287 334 304 338 q 363 354 458 360 q 504 364 527 364 q 552 364 552 349 q 552 343 548 339 q 544 335 503 334 q 475 333 440 313 q 372 274 307 234 l 269 212 l 280 188 q 312 120 321 106 q 331 93 344 93 q 352 93 382 98 q 402 102 411 102 q 429 102 429 88 q 429 81 422 77 q 415 74 384 70 q 336 62 289 47 q 257 36 179 3 q 170 0 165 0 q 152 0 152 12 q 152 21 161 27 q 181 39 264 71 l 271 73 l 266 84 l 241 138 l 230 159 l 220 181 l 205 172 q 131 125 116 112 q 111 107 111 102 q 111 93 128 93 l 151 93 q 189 93 195 90 q 203 85 200 76 q 196 67 178 67 q 59 68 -48 28 q -60 23 -64 23 q -75 23 -75 34 q -75 42 -66 47 q -51 56 7 74 l 16 81 q 126 156 198 200 l 208 207 q 195 237 188 252 q 157 321 153 325 q 148 331 139 329 q 129 327 104 318 q 75 308 70 308 q 59 308 59 319 q 59 328 65 332 q 90 348 185 372 q 274 395 307 395 q 322 395 322 381 q 322 374 317 370 q 312 366 263 358 q 250 356 219 349 l 210 346 l 213 339 q 222 316 248 258 z"},")":{"x_min":0,"x_max":295,"ha":295,"o":"m 354 698 q 366 698 366 683 q 366 633 344 538 q 296 326 194 182 q 129 91 14 -14 q -51 -73 -111 -111 q -128 -122 -134 -122 q -144 -122 -144 -112 q -144 -106 -138 -101 q -136 -99 -92 -62 q 20 35 109 157 q 209 292 277 467 q 322 585 341 684 q 343 698 354 698 z"},"&":{"x_min":0,"x_max":705,"ha":705,"o":"m 460 -8 q 427 50 403 102 q 362 68 310 39 q 228 -6 157 -6 q 104 -6 68 28 q 33 62 33 117 q 33 180 85 235 q 126 278 203 313 q 226 324 304 354 q 286 410 286 454 q 286 523 350 563 q 402 596 467 596 q 516 596 544 576 q 575 554 575 514 q 575 469 533 429 q 489 386 366 346 q 397 250 434 175 q 458 195 486 230 q 512 262 524 286 q 503 281 485 276 q 452 267 446 267 q 435 267 435 276 q 435 291 450 296 q 502 316 605 334 q 678 347 716 347 q 731 347 731 333 q 731 319 710 317 q 598 308 583 297 q 572 291 562 277 q 557 271 522 226 q 483 173 446 145 q 477 80 492 59 q 500 50 511 50 q 521 50 537 62 q 602 111 613 111 q 626 111 626 98 q 626 91 621 86 q 618 83 568 47 q 534 24 490 -20 q 478 -33 431 -85 q 422 -95 414 -95 q 402 -95 402 -82 q 402 -74 408 -65 q 432 -34 460 -8 z m 389 132 q 371 168 344 240 q 321 299 314 324 q 218 286 173 250 q 103 192 103 123 q 103 83 128 60 q 153 37 191 37 q 248 37 322 83 q 362 108 389 132 z m 358 375 q 413 392 454 417 q 484 437 500 463 q 513 484 513 504 q 513 526 501 542 q 483 566 450 566 q 411 566 379 536 q 343 503 343 454 q 343 423 358 375 z"},"_":{"x_min":0,"x_max":511,"ha":511,"o":"m 6 -133 l 506 -133 l 506 -165 l 6 -165 z"},"v":{"x_min":0,"x_max":417,"ha":417,"o":"m 142 92 q 195 151 244 201 q 329 287 371 322 q 340 314 289 297 q 281 294 276 294 q 264 294 264 306 q 264 315 276 321 q 319 343 417 361 q 477 372 512 372 q 530 372 530 360 q 530 350 520 347 q 516 346 486 342 q 439 336 411 318 q 385 303 300 219 q 181 98 115 14 q 103 -1 96 -1 q 86 -1 84 14 q 82 28 82 83 q 82 184 93 306 q 77 300 59 292 q 30 279 23 279 q 12 279 12 291 q 12 299 24 307 q 73 335 158 358 q 217 374 250 374 q 267 374 267 361 q 267 353 259 350 q 255 348 220 343 q 179 337 165 327 q 151 316 148 290 q 141 225 141 169 q 141 106 142 92 z"},"O":{"x_min":0,"x_max":550,"ha":550,"o":"m 539 585 q 571 575 591 552 q 623 516 623 465 q 623 385 555 287 q 501 209 416 135 q 334 65 255 25 q 186 -9 134 -9 q 85 -9 57 24 q 29 57 29 110 q 29 219 123 342 q 226 479 414 568 q 504 611 593 632 q 600 633 605 633 q 619 633 619 622 q 619 611 601 606 q 568 597 539 585 z m 456 558 q 317 496 219 388 q 159 322 125 241 q 98 179 98 129 q 98 91 117 67 q 138 40 175 40 q 219 40 284 76 q 362 119 438 205 q 505 280 540 360 q 561 410 561 449 q 561 507 514 537 q 491 551 463 557 q 456 558 456 558 z"},"(":{"x_min":0,"x_max":296,"ha":296,"o":"m 526 698 q 536 698 536 688 q 536 683 530 677 q 528 675 484 639 q 146 343 51 -108 q 49 -122 38 -122 q 26 -122 26 -107 q 26 -57 48 39 q 96 251 198 394 q 263 485 378 590 q 443 649 503 688 q 521 698 526 698 z"},"C":{"x_min":0,"x_max":515,"ha":515,"o":"m 610 584 q 635 623 652 644 q 661 654 668 654 q 682 654 682 642 q 682 634 675 626 q 612 544 575 442 q 568 427 559 427 q 547 427 547 440 q 547 448 572 512 q 578 525 578 531 q 578 562 524 562 q 432 562 316 478 q 230 414 164 316 q 94 213 94 134 q 94 94 114 70 q 137 42 176 42 q 227 42 300 85 q 357 118 408 160 q 439 187 445 187 q 458 187 458 174 q 458 160 397 113 q 239 -9 137 -9 q 82 -9 52 32 q 29 63 29 117 q 29 230 127 353 q 239 494 398 562 q 471 594 541 594 q 577 594 610 584 z"},"W":{"x_min":0,"x_max":800,"ha":800,"o":"m 888 573 q 844 566 793 551 q 783 548 777 548 q 764 548 764 562 q 764 572 777 578 q 807 592 897 608 q 994 626 1049 626 q 1066 626 1066 613 q 1066 604 1057 600 q 1051 597 1022 594 q 963 588 936 571 q 913 558 833 472 q 683 306 585 168 q 530 90 466 -13 q 453 -34 440 -34 q 425 -34 422 -21 q 420 -12 420 0 q 420 54 443 178 q 456 251 481 350 q 484 359 484 361 q 484 367 479 367 q 476 367 469 359 l 465 355 q 437 326 337 180 q 276 90 223 -5 q 208 -32 193 -32 q 173 -32 173 0 q 173 53 188 149 q 208 273 248 406 q 272 489 298 547 q 271 541 243 531 q 201 516 193 516 q 180 516 180 527 q 180 539 194 545 q 241 567 322 585 q 401 604 456 604 q 477 604 477 589 q 477 575 456 574 q 393 570 378 562 q 364 554 355 535 q 324 470 281 302 q 249 175 243 96 q 325 228 438 371 q 517 471 540 492 q 553 505 562 505 q 579 505 579 486 q 579 479 547 375 q 517 271 498 166 q 488 112 486 85 q 531 158 650 307 q 706 375 771 449 q 798 480 876 561 z"},"A":{"x_min":0,"x_max":618,"ha":618,"o":"m 505 342 q 558 352 575 352 q 591 352 591 338 q 591 327 578 324 q 572 322 542 318 q 506 314 500 307 q 493 299 482 196 q 473 98 476 80 q 479 64 493 64 q 496 64 500 64 q 529 67 559 67 q 589 67 589 53 q 589 40 569 39 q 500 34 448 22 q 411 13 389 3 l 333 -19 q 326 -22 318 -22 q 308 -22 308 -11 q 308 1 321 8 q 359 29 419 47 q 420 142 440 300 q 280 270 219 251 q 191 219 135 142 q 110 106 110 98 q 110 87 124 87 q 128 87 165 91 q 184 92 200 92 q 220 92 220 79 q 220 66 198 65 q 129 61 82 49 q 42 39 22 30 l -33 7 q -43 2 -51 2 q -60 2 -60 14 q -60 24 -44 33 q -3 55 48 71 l 54 79 q 136 196 167 237 q 159 235 105 220 q 98 218 92 218 q 81 218 81 231 q 81 242 109 251 q 133 259 162 267 q 191 274 200 276 l 207 284 q 361 459 480 572 q 521 611 541 625 q 554 635 562 635 q 579 635 579 619 q 579 613 573 598 q 519 459 505 342 z m 444 332 q 448 362 463 431 q 476 486 483 511 q 484 514 484 516 q 484 525 476 522 q 465 520 351 399 q 270 314 270 307 q 270 298 276 298 q 281 298 361 316 q 395 323 444 332 z"},"f":{"x_min":0,"x_max":290,"ha":290,"o":"m 213 314 q 186 277 144 206 q 85 107 85 86 q 85 73 102 73 q 114 73 139 75 q 151 76 163 76 q 185 76 185 62 q 185 50 164 50 q 108 48 47 34 q -13 20 -62 -4 q -70 -8 -75 -8 q -83 -8 -87 -2 q -90 2 -87 8 q -79 25 1 51 q 97 236 143 304 q 117 299 79 292 q 74 291 69 291 q 56 291 56 303 q 56 315 76 320 q 106 328 166 336 q 297 515 433 515 q 441 515 461 513 q 504 577 519 577 q 531 577 531 565 q 531 558 522 546 q 478 492 439 410 q 429 390 420 390 q 407 390 407 403 q 407 411 436 469 q 440 476 440 481 q 440 491 424 491 q 378 491 328 451 q 280 412 248 364 q 236 346 257 346 l 331 347 q 348 347 354 346 q 365 344 365 333 q 365 321 349 319 q 345 319 283 318 q 273 318 213 314 z"},"Q":{"x_min":0,"x_max":550,"ha":550,"o":"m 330 69 q 215 -9 132 -9 q 89 -9 62 18 q 29 52 29 110 q 29 218 123 342 q 226 478 414 568 q 504 611 593 632 q 600 633 605 633 q 619 633 619 622 q 619 611 601 606 q 564 595 539 585 q 567 576 584 559 q 623 522 623 465 q 623 376 539 265 q 494 205 421 140 l 417 136 q 399 121 397 119 q 385 107 385 87 q 385 71 393 50 q 431 -45 445 -66 q 453 -76 462 -76 q 472 -76 510 -48 q 547 -21 558 -21 q 572 -21 572 -34 q 572 -43 555 -55 q 466 -115 402 -181 q 372 -213 365 -216 q 361 -219 358 -219 q 346 -219 347 -206 q 347 -189 408 -132 q 356 -28 330 69 z m 322 100 q 312 144 312 194 q 312 275 339 302 q 344 307 349 307 q 356 307 356 292 q 356 291 356 281 q 355 266 355 249 q 355 185 368 135 q 425 185 466 238 q 519 306 544 372 q 561 414 561 448 q 561 491 535 520 q 507 549 456 558 q 317 496 219 388 q 159 322 125 241 q 98 179 98 129 q 98 80 128 56 q 147 40 175 40 q 238 40 322 100 z"},"w":{"x_min":0,"x_max":575,"ha":575,"o":"m 335 91 q 361 128 431 213 q 488 283 527 324 q 495 314 446 296 q 435 292 430 292 q 418 292 418 303 q 418 316 437 324 q 479 342 541 357 q 622 377 657 377 q 673 377 673 364 q 673 352 652 349 q 601 342 581 333 q 559 324 490 241 q 404 137 324 26 q 309 5 299 5 q 287 5 284 24 q 279 66 279 176 q 279 222 282 266 q 197 156 113 26 q 99 4 92 4 q 79 4 76 23 q 70 56 70 127 q 70 228 78 297 q 57 290 42 283 q 13 270 7 270 q -5 270 -5 282 q -5 292 6 298 q 49 325 137 347 q 205 365 230 365 q 247 365 247 352 q 247 339 226 336 q 154 325 141 313 q 125 298 125 140 q 125 113 125 96 q 208 217 280 303 q 306 334 312 341 q 319 347 324 347 q 338 347 338 328 q 338 324 335 253 q 333 222 333 158 q 333 119 335 91 z"},"-":{"x_min":0,"x_max":339,"ha":339,"o":"m 316 244 q 334 244 333 228 q 333 213 315 211 q 261 207 200 197 q 130 186 98 177 q 27 158 19 158 q 7 158 7 171 q 7 183 17 188 q 51 203 163 224 q 214 234 282 241 q 314 244 316 244 z"},"E":{"x_min":0,"x_max":562,"ha":562,"o":"m 438 102 l 444 109 q 504 195 519 195 q 533 195 533 182 q 533 175 524 165 q 456 84 402 -22 q 394 -39 386 -39 q 368 -39 372 -21 q 375 -10 391 20 q 410 56 410 60 q 410 66 404 68 q 400 69 387 69 q 303 69 177 45 q 109 32 72 20 l -28 -15 q -35 -17 -40 -17 q -50 -17 -50 -3 q -50 6 -37 12 q -18 21 27 37 q 65 137 124 242 q 142 273 209 379 q 280 492 302 514 q 306 519 306 522 q 306 534 294 532 q 277 529 234 518 q 228 516 222 516 q 210 516 210 528 q 210 537 229 544 q 296 569 435 586 q 549 599 653 599 q 678 636 684 645 q 700 666 711 666 q 723 666 723 652 q 723 647 688 596 q 655 544 617 454 q 610 438 600 438 q 587 438 587 450 q 587 463 626 551 q 628 557 628 560 q 628 568 620 570 q 617 570 607 570 q 569 570 498 564 q 434 559 401 552 q 376 522 310 431 q 269 374 269 364 q 269 358 275 356 q 280 355 318 360 q 376 369 438 370 q 479 437 498 437 q 509 437 509 423 q 509 418 504 412 q 470 365 450 332 q 433 302 404 244 q 396 227 389 227 q 374 227 374 238 q 374 253 392 285 q 410 319 410 328 q 410 339 395 339 q 363 339 298 329 q 255 323 237 319 q 198 267 134 137 q 115 97 115 85 q 115 67 130 67 q 138 67 174 75 q 309 101 438 102 z"},"s":{"x_min":0,"x_max":322,"ha":322,"o":"m 275 312 q 316 366 332 366 q 344 366 344 355 q 344 348 334 336 q 303 301 287 277 q 277 260 256 219 q 248 202 239 202 q 228 202 228 214 q 228 223 250 267 q 253 275 253 281 q 253 289 244 296 q 225 312 190 312 q 156 312 138 295 q 121 280 121 261 q 121 244 138 227 q 145 219 173 200 q 204 179 218 164 q 244 137 244 108 q 244 79 220 50 q 199 26 159 13 q 127 3 94 3 q 46 3 -21 32 q -41 7 -61 -37 q -66 -50 -78 -50 q -88 -50 -88 -38 q -88 -20 -53 38 q -13 102 24 138 q 40 153 49 153 q 62 153 62 141 q 62 134 55 126 q 54 125 34 104 q 10 80 10 65 q 10 54 24 45 q 51 29 95 29 q 134 29 159 44 q 191 63 191 91 q 191 110 170 129 q 162 137 133 156 q 100 180 87 194 q 66 218 66 244 q 66 284 103 310 q 135 333 184 333 q 225 333 275 312 z"},">":{"x_min":0,"x_max":541,"ha":541,"o":"m 150 501 l 542 307 l 533 267 l 59 73 l 69 117 l 489 287 l 141 456 z"},"l":{"x_min":0,"x_max":230,"ha":230,"o":"m -2 61 q 81 233 240 444 q 246 452 246 458 q 246 468 235 468 q 224 468 169 451 q 162 449 156 449 q 146 449 146 460 q 146 471 161 477 q 200 491 265 506 q 315 518 330 518 q 346 518 346 504 q 346 499 341 491 q 335 482 304 441 q 212 322 139 206 q 78 108 78 92 q 78 77 103 80 q 119 81 153 81 q 182 81 182 66 q 182 53 159 53 q 95 52 44 41 q 9 32 -68 3 q -77 0 -82 0 q -95 0 -95 12 q -95 23 -80 31 q -62 39 -25 53 q -2 61 -2 61 z"},"8":{"x_min":0,"x_max":462,"ha":462,"o":"m 435 577 q 560 562 560 486 q 560 420 470 382 q 451 374 387 355 q 433 299 433 245 q 433 168 352 94 q 295 42 224 16 q 168 -4 121 -4 q 64 -4 31 25 q -6 57 -6 114 q -6 180 50 237 q 103 292 229 334 q 243 339 285 351 q 294 354 303 356 q 287 374 275 390 q 249 426 249 458 q 249 514 310 556 q 356 587 423 602 q 455 608 470 608 q 484 608 484 598 q 484 588 470 585 q 449 581 435 577 z m 323 333 q 200 300 131 243 q 62 186 62 122 q 62 80 90 57 q 115 37 152 37 q 210 37 272 74 q 324 105 351 151 q 373 188 373 226 q 373 258 352 292 q 342 310 329 325 q 323 333 323 333 z m 367 378 q 409 385 444 405 q 499 436 499 487 q 499 530 448 551 q 425 560 396 562 q 365 552 344 535 q 308 505 308 471 q 308 447 331 418 q 340 406 367 378 z"},"\\":{"x_min":0,"x_max":544,"ha":544,"o":"m 260 700 q 271 700 281 675 q 332 554 374 357 q 417 154 417 5 q 417 -38 413 -57 q 408 -76 395 -76 q 377 -76 377 -52 q 377 -48 378 -33 q 386 104 353 275 q 303 531 251 660 q 244 678 244 686 q 244 700 260 700 z"},"e":{"x_min":0,"x_max":357,"ha":357,"o":"m 319 219 q 236 217 87 194 l 71 191 q 54 158 54 129 q 54 97 80 82 q 97 72 120 72 q 154 72 227 97 q 256 139 273 160 q 292 182 300 182 q 312 182 312 170 q 312 164 306 156 q 305 154 285 130 q 247 84 194 -24 q 188 -40 180 -40 q 166 -40 166 -29 q 166 -16 199 48 q 203 55 203 58 q 203 62 197 62 q 195 62 187 60 q 114 35 79 35 q 40 35 17 60 q -6 83 -6 115 q -6 182 49 246 q 90 293 151 323 q 208 351 262 351 q 290 351 310 336 q 335 316 335 286 q 335 258 319 219 z m 270 245 q 285 274 285 292 q 285 310 272 319 q 262 326 246 326 q 211 326 171 300 q 124 270 104 236 q 101 232 101 230 q 101 225 108 224 q 113 224 187 235 q 221 240 270 245 z"},"b":{"x_min":0,"x_max":367,"ha":367,"o":"m 170 285 q 242 341 295 341 q 329 341 345 321 q 359 305 359 283 q 359 223 310 156 q 263 93 189 55 q 123 20 60 20 q 28 20 4 34 q -15 45 -15 63 q -15 98 78 245 q 158 371 217 444 q 236 469 236 479 q 236 487 227 487 q 218 487 187 478 q 148 466 143 466 q 133 466 133 478 q 133 486 144 491 q 166 500 223 515 q 301 534 325 534 q 340 534 340 520 q 340 514 333 505 q 331 502 292 454 q 224 368 170 285 z m 258 302 q 201 302 136 225 q 96 177 63 114 q 44 78 44 63 q 44 46 70 46 q 158 46 236 144 q 295 218 295 269 q 295 283 286 293 q 277 302 258 302 z"},"%":{"x_min":0,"x_max":524,"ha":524,"o":"m 336 557 q 378 550 378 514 q 378 465 313 399 q 276 362 227 341 q 199 329 177 329 q 154 329 140 341 q 125 354 125 377 q 125 416 158 458 q 214 533 327 585 q 426 630 493 630 q 521 630 537 618 q 554 605 554 582 q 554 538 500 458 q 425 345 249 192 q 103 65 6 -5 q -2 -12 -8 -12 q -21 -12 -21 -1 q -21 5 -14 11 q -12 14 110 111 q 175 163 253 234 q 331 304 377 353 q 447 427 486 493 q 507 528 507 550 q 507 569 495 581 q 481 595 458 595 q 410 595 336 557 z m 282 527 q 237 503 206 459 q 184 430 184 404 q 184 374 217 374 q 238 374 266 394 q 300 417 320 455 q 331 476 331 491 q 331 513 311 521 q 303 525 293 526 q 283 528 282 527 z m 479 227 q 521 213 521 170 q 521 138 495 101 q 460 47 397 18 q 356 -1 325 -1 q 301 -1 287 12 q 272 25 272 49 q 272 81 296 118 q 343 192 447 240 q 500 265 513 265 q 524 265 524 256 q 524 246 512 240 q 502 236 479 227 z m 427 196 q 386 172 357 133 q 329 95 329 71 q 329 58 337 49 q 347 39 363 39 q 396 39 436 77 q 476 117 476 155 q 476 182 454 191 q 445 195 435 196 q 428 196 427 196 z"},"m":{"x_min":0,"x_max":688,"ha":688,"o":"m 191 275 q 277 348 341 348 q 372 348 389 330 q 405 314 405 292 q 405 274 396 250 q 420 277 446 294 q 494 326 540 326 q 566 326 587 312 q 612 295 612 250 q 612 234 603 213 q 594 192 565 139 q 552 113 552 103 q 552 87 572 87 q 574 87 579 87 q 606 88 623 88 q 646 88 651 85 q 660 82 660 73 q 660 60 640 59 q 581 58 556 54 q 493 43 411 10 q 402 7 398 7 q 384 7 384 19 q 384 29 400 37 q 421 47 452 58 q 466 63 470 65 q 485 90 515 147 q 537 188 543 201 q 557 231 557 250 q 557 288 516 288 q 460 288 405 230 q 374 199 344 142 q 325 105 325 92 q 325 77 342 77 q 344 77 368 80 q 383 82 396 82 q 412 82 412 69 q 412 58 393 55 q 278 46 182 -2 q 172 -7 166 -7 q 153 -7 153 6 q 153 16 167 23 q 188 34 233 51 q 244 66 281 129 q 299 161 327 214 q 340 240 343 249 q 347 261 347 275 q 347 288 339 296 q 329 309 311 309 q 269 309 215 267 q 165 228 119 157 q 89 111 89 91 q 89 79 99 78 q 105 76 139 79 q 156 80 169 80 q 187 80 187 67 q 187 59 178 55 q 174 54 112 49 q 75 47 18 32 q 2 27 -64 4 q -72 1 -78 1 q -88 1 -88 15 q -88 24 -76 30 q -56 38 -25 49 q 0 57 8 60 l 11 65 q 73 184 140 283 q 144 290 144 294 q 144 305 133 305 q 126 305 62 284 q 57 282 52 282 q 41 282 41 293 q 41 303 53 309 q 82 321 162 343 q 194 352 204 352 q 223 352 223 333 q 223 325 206 299 q 201 291 191 275 z"},"#":{"x_min":0,"x_max":600,"ha":600,"o":"m 318 181 q 255 179 192 176 l 189 168 l 184 157 q 150 76 144 49 q 145 47 145 43 l 146 35 q 147 22 139 12 q 129 0 114 0 q 91 0 91 20 q 91 51 143 165 l 146 174 l 135 174 q 104 173 95 173 q 33 173 33 193 q 33 207 45 218 q 51 222 62 222 q 65 222 74 222 q 88 222 128 221 l 148 221 l 160 221 l 168 221 q 192 272 221 326 q 214 326 207 326 q 187 325 166 325 q 104 325 105 354 q 106 369 116 379 q 123 386 132 386 q 140 386 164 377 q 172 374 246 373 l 250 380 q 257 395 263 407 q 297 471 302 482 q 328 533 340 543 q 347 549 354 549 q 365 549 367 539 q 370 527 342 478 q 320 438 289 373 l 304 373 l 328 373 q 382 374 414 373 q 424 391 479 489 q 509 540 521 549 q 530 555 538 555 q 554 555 551 539 q 549 523 522 484 q 498 447 456 371 q 464 371 472 371 q 501 372 519 372 q 562 372 562 350 q 562 339 555 332 q 550 327 542 327 q 536 327 524 328 q 472 331 435 332 q 403 272 380 220 q 433 215 460 210 q 488 205 488 186 q 488 161 472 161 q 466 161 457 165 q 421 176 363 180 l 358 167 q 329 98 316 57 l 314 49 q 312 43 310 32 q 304 7 287 7 q 264 7 264 27 q 264 57 314 171 z m 337 222 q 360 270 388 322 l 393 333 l 378 332 q 352 331 279 328 l 264 328 q 260 320 224 248 l 216 232 l 211 221 l 227 221 l 254 221 q 306 222 337 222 z"},",":{"x_min":0,"x_max":225,"ha":225,"o":"m 46 30 q 18 34 18 62 q 18 82 31 98 q 44 114 63 114 q 79 114 88 103 q 96 93 96 78 q 96 24 24 -51 q -7 -82 -34 -98 q -46 -105 -52 -105 q -63 -105 -63 -95 q -63 -90 -59 -85 q -57 -83 -37 -68 q 23 -22 46 30 z"},"n":{"x_min":0,"x_max":461,"ha":461,"o":"m 15 60 q 64 164 141 284 q 145 290 145 295 q 145 305 135 305 q 127 305 84 291 q 57 282 53 282 q 42 282 42 295 q 42 303 53 309 q 68 317 137 337 q 188 352 204 352 q 226 352 226 334 q 226 328 221 320 q 204 288 198 275 q 266 333 327 333 q 364 333 381 312 q 395 295 395 272 q 395 246 377 204 q 373 193 346 139 q 331 107 331 97 q 331 84 343 83 q 347 82 385 85 q 404 87 416 87 q 433 87 433 74 q 433 62 417 61 q 348 54 317 46 q 270 35 188 -2 q 177 -7 171 -7 q 160 -7 160 5 q 160 16 174 23 q 204 38 243 53 q 255 73 292 144 q 336 228 336 258 q 336 275 325 285 q 314 295 297 295 q 250 295 193 243 q 136 191 104 120 q 92 93 92 86 q 92 73 111 73 l 146 73 q 178 73 184 71 q 192 68 192 60 q 192 45 171 45 q 117 45 82 41 q 43 36 8 27 q -27 14 -66 3 q -72 1 -77 1 q -88 1 -88 13 q -88 24 -75 30 q -39 46 15 60 z"},"h":{"x_min":0,"x_max":448,"ha":448,"o":"m 174 272 q 246 327 298 327 q 340 327 359 304 q 375 286 375 259 q 375 237 363 210 q 360 203 341 166 q 312 108 312 99 q 312 83 330 83 q 333 83 338 83 q 363 84 383 84 q 405 84 411 82 q 419 78 419 69 q 419 56 399 56 q 332 56 278 43 q 238 33 170 7 q 162 4 157 4 q 144 4 144 16 q 144 26 157 32 q 174 41 225 59 l 230 61 q 233 66 249 96 q 285 164 300 197 q 316 232 316 252 q 316 267 308 277 q 299 288 266 288 q 221 288 164 237 q 122 200 91 140 q 75 107 75 95 q 75 84 90 84 l 148 85 q 181 85 181 71 q 181 56 156 57 q 104 60 41 44 q 7 36 -66 9 q -76 5 -83 5 q -95 5 -95 17 q -95 26 -83 33 q -69 41 -13 61 l -7 63 q 102 284 247 458 q 255 467 255 475 q 255 485 242 484 q 229 483 178 466 q 171 463 167 463 q 154 463 154 476 q 155 483 163 488 q 179 497 259 520 q 319 538 340 538 q 359 538 359 522 q 359 514 353 505 q 346 496 307 450 q 210 335 174 272 z"},"z":{"x_min":0,"x_max":393,"ha":393,"o":"m 239 76 q 302 166 322 166 q 333 166 333 154 q 333 149 329 142 q 328 141 293 100 q 241 36 205 -43 q 197 -61 188 -61 q 175 -61 175 -47 q 175 -35 202 16 q 208 27 208 32 q 208 44 189 44 q 173 44 52 28 q -20 18 -28 18 q -48 18 -48 33 q -48 45 -38 58 q 31 140 314 315 q 198 310 145 301 q 138 290 120 255 q 114 242 103 242 q 93 242 93 254 q 93 270 122 317 q 151 364 187 401 q 212 428 222 428 q 235 428 235 416 q 235 410 229 403 q 229 401 208 381 q 181 353 181 340 q 181 330 192 330 q 196 330 203 331 q 290 340 378 340 q 407 340 414 338 q 422 336 422 328 q 422 319 403 309 q 331 269 228 201 q 70 96 55 75 q 51 68 53 63 q 55 56 65 56 q 70 56 81 58 q 140 66 232 75 z"},"B":{"x_min":0,"x_max":573,"ha":573,"o":"m 339 351 q 410 351 465 338 q 517 327 540 298 q 561 273 561 244 q 561 202 523 156 q 465 87 362 48 q 272 14 161 14 q 27 14 27 49 q 27 77 83 184 q 164 335 289 508 q 295 518 295 523 q 295 529 289 529 q 279 529 255 519 q 225 507 216 507 q 207 507 207 521 q 207 529 223 537 q 276 564 379 588 q 467 608 532 608 q 567 608 588 597 q 619 579 619 544 q 619 488 520 430 q 446 387 339 351 z m 248 347 q 304 362 376 392 q 544 462 544 532 q 544 576 481 576 q 447 576 402 566 q 320 457 248 347 z m 225 313 q 181 241 126 136 q 100 85 100 68 q 100 56 111 51 q 127 44 169 44 q 253 44 335 78 q 421 114 464 175 q 489 211 489 245 q 489 286 450 306 q 415 324 338 324 q 285 324 240 316 q 225 313 225 313 z"},"K":{"x_min":0,"x_max":590,"ha":590,"o":"m 410 564 q 363 508 296 407 q 276 377 276 373 q 276 364 286 364 q 302 364 398 408 q 561 482 675 574 q 698 621 715 646 q 725 662 729 667 q 736 675 746 675 q 757 675 757 663 q 757 657 750 646 q 691 551 665 452 q 660 433 648 433 q 635 433 635 447 q 635 455 646 493 q 651 509 643 509 q 639 509 629 503 q 456 392 309 339 q 349 253 428 144 q 448 117 458 106 q 466 99 473 99 q 478 99 481 102 q 484 104 511 130 q 540 160 552 160 q 564 160 564 148 q 564 141 554 131 q 516 96 476 49 q 429 -5 406 -41 q 396 -56 385 -56 q 374 -56 374 -44 q 374 -28 429 41 q 389 83 329 177 q 274 263 245 326 q 183 229 148 152 q 125 103 125 91 q 125 77 141 77 q 146 77 185 81 q 204 83 220 83 q 241 83 241 70 q 241 61 229 57 q 225 56 158 46 q 72 33 -22 -8 q -32 -12 -37 -12 q -50 -12 -50 0 q -50 13 -23 26 q -12 31 14 42 q 29 47 37 51 q 64 129 132 249 q 213 391 299 507 q 306 515 306 521 q 306 529 295 529 q 287 529 239 509 q 233 506 225 506 q 216 506 216 521 q 216 530 256 547 q 305 568 357 583 q 446 609 498 609 q 515 609 515 596 q 515 585 502 582 q 498 581 459 575 q 436 572 410 564 z"},"R":{"x_min":0,"x_max":570,"ha":570,"o":"m 221 283 q 195 242 152 157 q 125 101 125 89 q 125 75 138 75 q 143 75 152 77 q 188 83 218 83 q 239 83 239 69 q 239 56 216 55 q 140 51 59 24 q 37 17 -24 -9 q -31 -12 -36 -12 q -50 -12 -50 -1 q -50 9 -39 16 q -22 25 38 50 q 95 175 131 243 q 164 304 214 382 q 269 466 298 503 q 306 513 306 518 q 306 526 295 526 q 285 526 241 509 q 230 504 226 504 q 215 504 215 517 q 215 526 232 535 q 288 561 375 583 q 464 606 528 606 q 611 606 648 569 q 667 549 667 516 q 667 477 631 431 q 592 382 512 341 q 433 301 318 281 q 299 278 299 271 q 299 261 364 164 q 408 97 425 82 q 431 77 436 77 q 441 77 452 86 q 494 125 507 136 q 517 144 524 144 q 537 144 537 133 q 537 125 527 115 q 526 114 487 79 q 430 27 370 -61 q 360 -75 350 -75 q 338 -75 338 -63 q 338 -50 366 -14 q 384 11 389 18 q 285 164 221 283 z m 234 306 q 251 305 258 305 q 360 305 464 364 q 536 405 574 456 q 596 485 596 511 q 596 573 502 573 q 461 573 411 562 q 383 530 313 428 q 255 342 234 306 z"},"T":{"x_min":0,"x_max":527,"ha":527,"o":"m 521 569 q 390 399 315 274 q 259 180 234 117 q 226 98 226 90 q 226 75 241 75 q 244 75 248 76 q 285 80 316 80 q 337 80 337 66 q 337 56 327 53 q 321 51 287 49 q 198 45 104 2 q 71 -13 62 -13 q 53 -13 53 -5 q 53 9 66 17 q 87 27 135 48 l 140 50 q 174 127 203 185 q 257 290 316 378 q 344 421 427 537 q 432 544 432 548 q 432 557 424 557 q 415 557 366 548 q 297 537 262 528 q 226 479 202 431 q 196 417 185 416 q 169 414 172 433 q 175 456 225 528 q 264 585 304 627 q 325 648 333 648 q 347 648 347 635 q 347 625 324 603 q 306 584 306 576 q 306 570 313 570 q 320 570 363 578 q 540 607 688 608 q 706 636 713 646 q 729 667 739 667 q 750 667 750 651 q 750 648 712 591 q 689 559 666 507 q 660 492 636 432 q 631 418 622 418 q 608 418 608 432 q 608 449 653 550 q 656 556 656 562 q 656 576 626 576 q 571 576 521 569 z"},"P":{"x_min":0,"x_max":546,"ha":546,"o":"m 206 259 q 176 209 157 168 q 126 105 126 91 q 126 78 140 78 q 151 78 183 82 q 201 84 217 84 q 239 84 239 70 q 239 58 216 55 q 131 44 92 34 q 34 19 -24 -8 q -31 -11 -34 -11 q -50 -11 -50 5 q -50 12 -39 18 q -22 27 39 52 q 130 269 266 457 q 308 513 308 519 q 308 528 298 528 q 289 528 238 507 q 231 504 225 504 q 216 504 216 520 q 216 529 261 547 q 307 565 371 582 q 464 606 538 606 q 607 606 643 582 q 679 557 679 513 q 679 444 597 378 q 463 270 206 259 z m 415 563 q 377 519 317 433 q 260 350 225 289 q 349 293 455 346 q 528 382 570 427 q 606 464 606 504 q 606 575 512 575 q 462 575 415 563 z"},"|":{"x_min":0,"x_max":500,"ha":500,"o":"m 228 667 l 272 667 l 272 -167 l 228 -167 z"},"t":{"x_min":0,"x_max":291,"ha":291,"o":"m 151 36 q 174 73 197 102 q 227 140 238 140 q 250 140 250 127 q 250 120 243 111 q 207 70 182 32 q 160 -3 134 -61 q 126 -78 116 -78 q 104 -78 104 -64 q 104 -54 126 -10 q 130 -2 130 2 q 130 9 125 10 q 123 11 95 13 q 8 20 8 92 q 8 171 112 316 q 94 314 54 308 q 30 304 30 317 q 30 327 46 331 q 75 340 137 349 q 195 411 244 448 q 278 476 287 476 q 300 476 300 464 q 300 458 294 452 q 293 451 270 429 q 221 383 221 370 q 221 360 232 360 q 234 360 240 361 q 278 363 313 363 q 337 363 346 361 q 356 359 356 349 q 356 338 346 335 q 342 335 304 335 q 252 334 183 327 q 152 288 122 235 q 67 140 67 96 q 67 66 88 49 q 106 35 135 35 q 140 35 151 36 z"},"M":{"x_min":0,"x_max":714,"ha":714,"o":"m 324 170 q 404 258 490 345 q 583 437 706 541 q 716 549 716 554 q 716 559 711 559 q 708 559 696 556 q 688 553 684 553 q 672 553 672 562 q 672 574 683 579 q 707 589 776 604 q 848 620 894 620 q 917 620 917 605 q 917 591 895 590 q 827 588 806 568 q 782 544 707 416 q 625 276 578 177 q 542 102 542 79 q 542 62 560 62 q 564 62 601 66 q 626 69 639 69 q 657 69 657 55 q 657 44 641 40 q 636 39 575 31 q 476 18 399 -20 q 388 -25 382 -25 q 370 -25 370 -16 q 370 -2 382 6 q 404 20 456 37 q 498 150 552 258 q 602 352 682 477 q 648 450 571 377 q 440 254 307 98 q 292 80 281 80 q 259 80 259 110 q 259 153 280 272 q 292 343 313 430 q 315 436 315 439 q 315 444 312 444 q 308 444 301 436 q 245 369 179 271 q 120 183 87 113 q 75 87 75 81 q 75 68 92 68 q 96 68 101 69 q 164 78 194 78 q 216 78 216 64 q 216 54 204 51 q 199 50 165 46 q 111 40 75 31 q 38 22 8 10 l -41 -11 q -49 -15 -55 -15 q -67 -15 -67 -2 q -67 6 -59 12 q -41 26 18 48 q 99 232 292 474 q 324 513 324 524 q 324 536 312 536 q 303 536 276 528 q 235 516 228 516 q 218 516 218 530 q 218 541 256 552 q 338 578 388 578 q 412 578 412 559 q 412 552 383 458 q 359 379 339 274 q 327 210 324 170 z"},"g":{"x_min":0,"x_max":419,"ha":419,"o":"m -92 -114 q -107 -140 -127 -188 q -133 -201 -140 -201 q -155 -201 -155 -188 q -155 -178 -130 -122 q -113 -86 -84 -37 q -64 -3 -52 -3 q -41 -3 -41 -15 q -41 -20 -46 -28 q -75 -74 -75 -82 q -75 -93 -65 -98 q -29 -117 8 -117 q 87 -117 153 -14 q 191 45 239 144 q 203 103 172 81 q 108 34 54 34 q 22 34 4 58 q -8 76 -8 102 q -8 144 20 186 q 74 265 166 305 q 212 325 254 325 q 293 325 329 308 q 340 329 355 334 q 372 341 419 351 q 478 363 494 363 q 508 363 508 351 q 508 340 489 336 q 430 326 417 321 q 401 314 388 296 q 357 255 291 125 q 235 18 214 -16 q 170 -88 125 -115 q 80 -142 23 -142 q -31 -142 -92 -114 z m 261 301 q 196 301 135 250 q 90 213 66 162 q 54 135 54 114 q 54 95 67 84 q 78 75 95 75 q 147 75 219 151 q 267 201 300 256 q 310 273 310 278 q 310 301 261 301 z"},"j":{"x_min":0,"x_max":203,"ha":203,"o":"m 265 536 q 281 536 291 526 q 300 517 300 501 q 300 482 287 471 q 276 462 258 462 q 240 462 230 473 q 223 482 223 495 q 223 511 232 521 q 245 536 265 536 z m -227 -109 q -197 -116 -171 -116 q -117 -116 -76 -78 q -52 -56 -33 -26 q -19 -3 12 57 q 64 162 109 245 q 134 291 134 296 q 134 304 124 304 q 120 304 115 302 q 74 290 56 282 q 46 278 42 278 q 30 278 30 290 q 30 300 59 311 q 103 328 152 341 q 188 351 201 351 q 219 351 219 336 q 219 328 208 309 q 142 193 66 47 q 12 -59 -34 -99 q -84 -142 -167 -142 q -193 -142 -220 -137 q -227 -136 -230 -136 q -237 -136 -242 -141 q -249 -147 -262 -181 q -273 -209 -278 -213 q -282 -217 -287 -217 q -298 -217 -298 -205 q -298 -192 -276 -143 q -250 -83 -217 -37 q -206 -21 -197 -21 q -187 -21 -187 -32 q -187 -38 -209 -74 q -219 -90 -227 -109 z"},"i":{"x_min":0,"x_max":229,"ha":229,"o":"m 278 521 q 294 521 304 511 q 313 502 313 486 q 313 468 299 457 q 288 447 271 447 q 252 447 243 458 q 235 467 235 480 q 235 496 246 507 q 258 521 278 521 z m 6 64 l 10 71 q 74 191 140 291 q 148 303 148 308 q 148 315 140 315 q 129 315 56 289 q 47 285 43 285 q 33 285 33 296 q 33 304 39 308 q 62 325 150 348 q 192 359 207 359 q 231 359 231 342 q 231 336 227 328 q 222 318 188 267 q 165 233 118 155 q 89 107 89 94 q 89 82 107 82 l 171 83 q 192 83 192 69 q 192 54 170 54 q 105 53 73 47 q 37 41 2 30 q -32 19 -62 7 q -71 4 -76 4 q -88 4 -88 17 q -88 27 -74 35 q -44 48 6 64 z"},"y":{"x_min":0,"x_max":417,"ha":417,"o":"m 139 106 l 149 116 q 219 190 265 232 q 316 279 344 303 q 310 291 300 288 q 272 276 263 276 q 252 276 252 287 q 252 299 266 305 q 301 321 367 340 q 448 362 500 362 q 516 362 516 350 q 516 337 498 336 q 438 332 414 319 q 388 308 286 212 q 170 104 93 10 q 52 -41 35 -76 q 31 -83 31 -87 q 31 -97 42 -98 q 46 -98 87 -95 q 103 -94 122 -94 q 146 -94 146 -106 q 146 -117 132 -120 q 127 -121 73 -124 q 2 -129 -95 -167 q -105 -171 -110 -171 q -122 -171 -122 -158 q -122 -150 -107 -143 q -85 -132 -20 -112 q 22 -30 83 42 q 76 89 76 161 q 76 241 83 302 q 54 291 29 278 q 18 273 13 273 q 0 273 0 285 q 0 294 17 303 q 90 342 182 359 q 228 367 239 367 q 254 367 254 354 q 254 347 247 344 q 243 342 206 336 q 153 328 144 313 q 133 298 133 197 q 133 148 139 106 z"},"@":{"x_min":0,"x_max":601,"ha":601,"o":"m 338 193 q 296 150 276 136 q 244 114 217 114 q 195 114 182 127 q 166 145 166 172 q 166 221 198 287 q 241 375 294 420 q 328 448 357 448 q 384 448 400 427 q 416 407 416 373 q 416 365 416 356 q 415 345 415 341 q 415 336 416 331 q 416 323 416 320 q 416 307 399 272 q 367 202 367 166 q 367 153 377 153 q 397 153 438 197 q 488 251 522 319 q 556 387 556 444 q 556 513 510 558 q 464 602 396 602 q 326 602 255 554 q 170 495 120 396 q 65 289 65 172 q 65 80 113 32 q 157 -11 230 -11 q 338 -11 416 70 q 430 84 438 84 q 456 84 456 66 q 456 45 412 15 q 325 -46 221 -46 q 143 -46 95 -6 q 58 25 40 81 q 25 125 25 173 q 25 288 83 405 q 140 519 234 582 q 316 637 401 637 q 482 637 539 584 q 596 530 596 448 q 596 360 531 261 q 474 175 410 135 q 383 118 362 118 q 334 118 334 155 q 334 166 338 193 z m 355 417 q 337 417 304 387 q 272 357 241 304 q 197 230 197 174 q 197 161 202 152 q 209 141 221 141 q 257 141 328 233 q 383 304 383 364 q 383 417 355 417 z"},".":{"x_min":0,"x_max":230,"ha":230,"o":"m 67 111 q 84 111 95 101 q 105 90 105 75 q 105 56 93 44 q 81 32 59 32 q 42 32 32 42 q 21 52 21 68 q 21 84 32 96 q 46 111 67 111 z"},"p":{"x_min":0,"x_max":410,"ha":410,"o":"m -113 -146 q -97 -108 -57 -29 q -10 63 38 137 q 56 165 131 271 q 138 281 138 285 q 138 297 126 297 q 119 297 62 279 q 53 276 48 276 q 36 276 36 286 q 36 297 50 303 q 87 319 164 338 q 196 347 207 347 q 226 347 226 333 q 226 325 220 315 q 219 313 199 286 q 189 273 170 243 q 261 326 330 326 q 364 326 381 301 q 393 285 393 263 q 393 214 352 156 q 293 74 211 35 q 156 10 108 10 q 69 10 32 26 q 7 -15 -18 -70 q -32 -101 -32 -110 q -32 -130 -12 -130 l 38 -128 q 67 -128 67 -142 q 67 -155 47 -156 q -15 -156 -68 -167 q -115 -177 -183 -204 q -192 -207 -197 -207 q -208 -207 -208 -196 q -208 -185 -198 -179 q -193 -176 -113 -146 z m 51 53 q 73 36 98 36 q 177 36 254 115 q 291 152 312 195 q 325 222 325 244 q 325 282 287 282 q 238 282 168 212 q 133 178 89 114 q 69 85 56 62 q 50 54 51 53 z"},"X":{"x_min":0,"x_max":710,"ha":710,"o":"m 358 314 q 346 364 337 419 q 324 504 322 559 q 295 553 236 526 q 226 521 220 521 q 208 521 208 533 q 208 543 220 550 q 275 583 373 604 q 454 623 483 623 q 500 623 500 609 q 500 600 491 596 q 487 594 447 588 q 406 582 396 578 q 384 572 384 553 q 384 524 392 464 q 398 411 410 359 q 553 475 675 554 l 688 562 q 661 559 594 543 q 587 541 582 541 q 569 541 569 557 q 569 565 580 570 q 608 583 698 597 q 772 609 840 609 q 863 609 863 594 q 863 579 841 580 q 774 580 742 561 q 672 521 534 416 q 456 357 418 325 q 449 213 498 102 q 514 66 520 58 q 528 47 546 47 q 551 47 559 47 q 597 51 621 51 q 642 51 642 38 q 642 24 618 23 q 550 19 501 8 q 468 0 445 -9 l 390 -31 q 381 -35 373 -35 q 364 -35 364 -21 q 364 -14 379 -5 q 396 3 462 29 q 406 145 368 280 q 364 276 357 271 q 269 189 214 118 q 200 100 202 93 q 204 81 215 81 q 226 81 254 83 q 271 85 289 85 q 310 85 310 72 q 310 58 291 58 q 233 56 167 41 q 127 31 106 23 l 47 0 q 39 -3 30 -3 q 20 -3 20 8 q 20 20 34 26 q 77 47 126 63 q 229 197 358 314 z"},"*":{"x_min":0,"x_max":393,"ha":393,"o":"m 384 526 q 418 541 465 566 q 473 571 478 571 q 490 571 490 559 q 490 550 479 542 q 447 521 395 498 q 414 482 463 449 q 475 441 475 434 q 475 421 461 421 q 442 421 377 474 q 374 446 374 385 q 374 365 361 365 q 354 365 350 371 q 345 379 345 426 q 345 454 347 479 q 276 455 253 455 q 237 455 237 469 q 237 475 241 479 q 246 481 309 500 q 317 502 336 508 q 264 577 264 592 q 264 606 277 606 q 282 606 288 601 q 291 598 332 555 q 342 544 354 534 q 365 603 374 623 q 379 633 389 633 q 401 633 401 621 q 401 614 389 554 q 385 538 384 526 z"},"Y":{"x_min":0,"x_max":598,"ha":598,"o":"m 385 263 q 354 211 322 146 q 296 92 296 78 q 296 62 315 62 q 321 62 352 66 q 373 68 389 68 q 407 68 407 55 q 407 45 395 41 q 390 40 328 33 q 289 28 230 10 q 175 -7 148 -23 q 141 -27 137 -27 q 120 -27 120 -16 q 120 -4 132 3 q 161 19 207 35 q 243 119 263 161 q 283 200 323 271 q 280 413 259 542 q 233 534 182 512 q 172 507 167 507 q 155 507 155 520 q 155 530 167 537 q 255 584 383 605 q 424 612 434 609 q 445 606 445 596 q 445 583 425 580 q 361 572 340 563 q 323 557 323 538 q 323 509 346 412 q 359 357 377 302 q 405 328 521 428 q 617 509 671 551 q 659 548 654 547 q 616 539 571 526 q 565 525 560 525 q 547 525 547 539 q 547 548 560 554 q 583 563 652 578 q 756 600 831 600 q 852 600 852 585 q 852 574 841 571 q 836 570 804 568 q 759 565 745 560 q 725 554 696 530 q 677 515 657 500 q 488 365 385 263 z"},"c":{"x_min":0,"x_max":339,"ha":339,"o":"m 308 335 q 371 399 383 399 q 396 399 396 387 q 396 379 386 371 q 349 338 329 314 q 311 292 282 248 q 274 236 267 236 q 255 236 255 248 q 255 258 277 291 q 282 299 283 303 q 288 319 256 319 q 191 319 129 267 q 79 225 60 172 q 52 150 52 133 q 52 106 72 90 q 88 78 108 78 q 171 78 277 149 q 284 154 289 152 q 294 151 294 144 q 294 132 254 104 q 157 37 72 37 q 32 37 11 58 q -10 78 -10 111 q -10 172 42 232 q 92 291 167 322 q 215 342 257 342 q 278 342 308 335 z"},"!":{"x_min":0,"x_max":204,"ha":204,"o":"m 54 111 q 71 111 81 101 q 91 90 91 75 q 91 56 79 44 q 67 32 45 32 q 28 32 18 42 q 8 52 8 68 q 8 84 19 96 q 32 111 54 111 z m 377 630 q 393 630 393 618 q 393 614 390 608 q 389 606 338 538 q 234 399 137 238 q 126 219 117 219 q 100 219 100 232 q 100 260 220 453 q 270 532 316 597 q 332 618 347 624 q 362 630 377 630 z"},"/":{"x_min":0,"x_max":544,"ha":544,"o":"m 648 701 q 653 701 658 697 q 663 691 663 685 q 663 677 646 664 q 542 589 348 362 q 305 312 208 179 q 120 60 65 -44 q 56 -62 53 -66 q 46 -76 37 -76 q 22 -76 22 -61 q 22 -24 153 163 q 305 379 458 537 q 555 637 617 684 q 640 701 648 701 z"},"[":{"x_min":0,"x_max":335,"ha":335,"o":"m 466 655 q 332 492 189 222 q 122 95 73 -13 q 62 -39 62 -48 q 62 -66 77 -66 q 88 -66 129 -57 q 164 -50 184 -50 q 206 -50 206 -65 q 206 -77 190 -82 q 184 -83 157 -87 q 140 -89 101 -98 q 61 -106 44 -111 q 7 -122 -1 -122 q -28 -122 -19 -92 q -15 -82 28 13 q 123 223 261 449 q 341 580 399 654 q 418 679 430 685 q 444 692 504 696 q 555 700 592 700 q 620 700 620 684 q 620 671 598 670 q 566 668 517 663 q 466 656 466 655 z"},"6":{"x_min":0,"x_max":498,"ha":498,"o":"m 172 316 q 238 338 255 343 q 339 368 399 368 q 446 368 476 350 q 510 330 510 286 q 510 237 459 175 q 396 96 298 42 q 205 -9 142 -9 q 83 -9 57 38 q 35 78 35 129 q 35 208 90 297 q 125 353 190 415 q 284 504 400 559 q 486 599 558 608 l 563 615 q 589 650 595 657 q 602 664 608 664 q 621 664 621 651 q 621 646 617 640 q 616 638 584 593 q 550 541 510 453 q 504 440 495 440 q 486 440 483 449 q 479 460 521 543 q 524 550 524 554 q 524 566 510 566 q 498 566 461 553 q 362 518 276 440 q 217 388 172 316 z m 149 278 q 103 202 103 137 q 103 89 128 63 q 149 41 187 41 q 240 41 310 87 q 388 140 422 206 q 438 238 438 270 q 438 299 418 315 q 398 332 363 332 q 286 332 149 278 z"},"r":{"x_min":0,"x_max":356,"ha":356,"o":"m 4 52 q 44 142 133 279 q 139 288 139 294 q 139 305 125 303 q 114 301 56 280 q 47 277 43 277 q 32 277 32 289 q 32 297 43 303 q 64 313 128 333 q 179 349 200 349 q 220 349 220 332 q 220 322 211 309 q 210 307 187 273 q 169 246 159 228 q 223 275 314 310 q 352 355 376 355 q 401 355 401 334 q 401 311 346 285 q 336 266 336 243 q 336 235 338 220 q 321 199 301 199 q 274 199 274 225 q 274 242 287 270 q 227 252 172 210 q 119 171 94 120 q 84 100 84 89 q 84 71 111 71 l 146 72 q 169 72 178 70 q 190 68 190 57 q 190 43 165 44 q 105 46 46 32 q 13 23 -66 -4 q -88 -13 -88 6 q -88 16 -73 23 q -39 38 4 52 z"},"2":{"x_min":0,"x_max":529,"ha":529,"o":"m 411 104 q 479 197 495 197 q 507 197 507 184 q 507 180 503 174 q 501 171 466 129 q 416 67 373 -24 q 366 -37 358 -37 q 345 -37 345 -24 q 345 -10 379 51 q 382 57 382 61 q 382 71 359 71 q 307 71 221 58 q 116 42 6 7 q -6 3 -13 3 q -34 3 -34 23 q -34 42 1 70 q 72 128 213 227 l 278 272 q 429 376 476 416 q 525 457 525 491 q 525 534 461 534 q 414 534 330 515 q 291 506 252 494 q 238 477 206 421 q 199 408 190 408 q 179 408 179 419 q 179 431 199 466 q 254 561 319 614 q 338 630 344 629 q 356 627 356 618 q 356 612 350 605 q 348 604 325 583 q 298 559 298 548 q 298 541 307 541 q 312 541 321 542 q 429 566 488 566 q 532 566 561 554 q 604 536 604 495 q 604 455 564 415 q 523 374 373 285 q 271 225 194 175 q 114 125 49 71 l 46 68 q 41 64 41 60 q 41 55 47 55 q 50 55 57 56 q 189 89 279 97 q 352 104 411 104 z"},"{":{"x_min":0,"x_max":343,"ha":343,"o":"m 55 265 q 79 246 79 223 q 79 211 69 162 q 65 136 65 104 q 65 22 99 -25 q 123 -58 155 -62 q 178 -64 178 -76 q 178 -93 152 -93 q 113 -93 84 -62 q 26 -2 26 103 q 26 133 35 188 q 38 209 38 223 q 38 235 33 242 q 32 244 22 254 q 15 261 15 267 q 15 271 21 277 q 23 279 46 296 q 59 305 74 341 l 108 421 q 151 523 206 581 q 240 617 284 631 q 295 635 308 635 q 329 635 329 620 q 329 610 321 605 q 316 602 296 596 q 243 577 202 518 q 176 480 162 450 q 147 420 109 322 q 95 288 73 274 q 68 271 55 265 z"},"9":{"x_min":0,"x_max":526,"ha":526,"o":"m 461 296 q 417 281 396 274 q 331 256 278 256 q 223 256 191 278 q 153 305 153 356 q 153 450 268 536 q 327 581 394 604 q 441 621 478 621 q 538 621 568 579 q 596 541 596 487 q 596 381 501 259 q 387 113 228 39 q 132 -5 61 -5 q 19 -5 -4 5 q -13 -10 -37 -61 q -43 -76 -54 -76 q -67 -76 -67 -60 q -67 -44 -33 21 q 8 98 49 148 q 60 162 69 162 q 83 162 83 148 q 83 142 78 134 q 23 62 23 47 q 23 28 64 28 q 128 28 216 71 q 325 125 413 227 q 440 259 461 296 z m 483 337 q 527 412 527 473 q 527 514 509 539 q 482 576 434 576 q 395 576 347 550 q 281 514 247 460 q 218 414 218 370 q 218 333 245 311 q 269 292 312 292 q 361 292 430 315 q 444 320 463 328 q 482 336 483 337 z"}," ":{"x_min":0,"x_max":335,"ha":335,"o":""},"I":{"x_min":0,"x_max":314,"ha":314,"o":"m 415 564 q 302 420 218 276 q 125 119 125 89 q 125 75 141 75 q 145 75 184 80 q 204 82 220 82 q 240 82 240 68 q 240 56 217 54 q 93 41 4 4 q -31 -11 -38 -11 q -50 -11 -50 1 q -50 11 -41 16 q -25 25 40 52 q 42 59 62 104 q 133 269 286 482 q 311 515 311 521 q 311 528 302 528 q 290 528 251 509 q 239 503 233 505 q 226 507 226 515 q 226 527 238 534 q 302 570 396 592 q 459 607 490 607 q 518 607 518 593 q 518 582 506 579 q 502 578 464 574 q 442 572 415 564 z"},"H":{"x_min":0,"x_max":632,"ha":632,"o":"m 410 563 q 348 484 288 392 q 264 355 264 349 q 264 341 273 341 q 279 341 369 353 q 498 367 533 366 q 566 417 621 493 q 628 502 628 507 q 628 516 619 516 q 611 516 557 495 q 547 491 542 491 q 529 491 529 500 q 529 513 543 520 q 610 554 701 576 q 775 593 815 593 q 835 593 835 579 q 835 567 815 565 q 768 560 734 552 q 695 505 621 395 q 509 229 459 118 q 444 85 444 76 q 444 62 462 62 q 469 62 501 66 q 523 68 542 68 q 558 68 558 55 q 558 42 536 39 q 391 23 295 -21 q 285 -25 281 -25 q 273 -25 270 -19 q 268 -15 270 -9 q 277 9 358 37 q 381 112 461 249 q 494 304 496 308 q 500 315 500 322 q 500 333 485 333 q 459 333 356 322 q 290 314 233 306 q 185 232 143 144 q 125 104 125 92 q 125 76 142 76 q 148 76 184 80 q 205 83 222 83 q 242 83 242 69 q 242 57 220 54 q 136 44 95 34 q 50 22 -23 -8 q -33 -13 -38 -13 q -50 -13 -50 -2 q -50 9 -40 15 q -20 27 39 51 q 64 128 132 246 q 177 325 300 507 q 306 517 306 521 q 306 529 295 529 q 288 529 261 517 q 236 505 229 505 q 216 505 218 518 q 220 528 232 534 q 286 563 357 583 q 447 608 494 608 q 514 608 514 594 q 514 581 494 579 q 448 575 410 563 z"},"4":{"x_min":0,"x_max":530,"ha":530,"o":"m 492 286 q 554 379 570 379 q 584 379 584 366 q 584 360 578 352 q 541 307 511 259 q 491 227 456 155 q 450 142 439 142 q 428 142 428 154 q 428 162 444 195 q 464 236 464 240 q 464 252 449 252 q 417 252 357 242 q 327 191 300 132 q 286 102 286 93 q 286 78 302 78 q 304 78 345 82 q 369 84 388 84 q 406 84 406 69 q 406 59 395 56 q 392 55 358 53 q 301 49 263 39 q 219 28 139 -8 q 130 -12 125 -12 q 112 -12 112 0 q 112 10 125 18 q 137 24 198 52 q 233 145 283 229 q 169 208 40 159 q 31 156 23 156 q 7 156 7 173 q 7 184 29 206 q 103 276 226 371 q 333 453 463 539 q 543 591 557 591 q 572 591 572 575 q 572 569 568 562 q 563 552 516 490 q 431 374 375 277 q 440 285 492 286 z m 301 267 q 353 361 453 495 q 230 348 83 209 q 175 242 301 267 z"},"~":{"x_min":0,"x_max":588,"ha":588,"o":"m 150 171 l 123 191 q 142 226 161 249 q 199 292 251 292 q 291 292 369 251 q 415 227 432 221 q 454 214 472 214 q 507 214 535 242 q 553 261 572 294 l 600 274 q 581 238 561 216 q 523 173 471 173 q 444 173 406 190 q 387 198 351 217 q 312 238 294 244 q 271 252 250 252 q 213 252 185 221 q 168 202 150 171 z"},"D":{"x_min":0,"x_max":619,"ha":619,"o":"m 542 601 q 691 601 691 489 q 691 403 617 290 q 563 208 478 138 q 401 74 305 33 q 196 -13 95 -13 q 27 -13 27 20 q 27 53 90 174 q 155 300 257 443 q 301 505 301 511 q 301 520 293 520 q 287 520 258 508 q 235 498 228 496 q 211 492 211 505 q 211 517 221 522 q 235 531 283 549 q 338 570 416 587 q 482 601 542 601 z m 406 553 q 316 440 243 321 q 142 156 110 63 q 106 51 106 42 q 106 31 116 26 q 124 22 146 22 q 229 22 323 75 q 411 124 485 204 q 545 270 585 350 q 622 421 622 474 q 622 524 584 549 q 556 568 507 568 q 473 568 435 560 q 407 554 406 553 z"},"^":{"x_min":0,"x_max":500,"ha":500,"o":"m 125 385 l 79 385 l 264 667 l 316 667 l 501 385 l 454 385 l 289 636 z"},"0":{"x_min":0,"x_max":501,"ha":501,"o":"m 475 566 q 498 566 520 554 q 567 525 567 455 q 567 362 477 242 q 390 125 268 47 q 184 -6 127 -6 q 98 -6 74 12 q 35 42 35 116 q 35 250 165 386 q 274 502 438 579 q 502 608 514 608 q 527 608 527 598 q 527 590 517 584 q 504 578 475 566 z m 406 531 q 338 495 271 435 q 170 345 127 239 q 103 178 103 128 q 103 92 117 73 q 135 49 169 49 q 220 49 286 95 q 377 159 447 266 q 507 359 507 432 q 507 491 464 518 q 446 528 424 530 q 408 532 406 531 z"},"F":{"x_min":0,"x_max":485,"ha":485,"o":"m 418 557 q 349 478 287 381 q 280 370 280 366 q 280 357 291 357 q 294 357 332 362 q 410 372 441 373 q 447 379 462 401 q 488 438 500 438 q 512 438 512 425 q 512 420 508 413 q 507 412 479 372 q 443 320 407 245 q 399 230 392 230 q 377 230 377 241 q 377 254 395 287 q 414 326 414 331 q 414 341 401 341 q 374 341 250 322 q 199 243 165 177 q 127 104 127 82 q 127 66 144 66 q 151 66 184 70 q 208 73 223 73 q 241 73 241 60 q 241 47 218 44 q 142 36 93 25 q 54 16 31 7 q 3 -4 -25 -16 q -34 -19 -40 -19 q -50 -19 -50 -8 q -50 2 -40 8 q -21 20 41 42 q 71 134 136 245 q 201 358 273 458 q 315 516 317 520 q 320 526 316 530 q 313 535 306 535 q 297 535 268 527 q 235 518 226 518 q 216 518 216 526 q 216 540 228 544 q 280 565 396 583 q 522 601 650 601 q 669 630 683 647 q 698 667 707 667 q 719 667 719 655 q 719 649 686 601 q 648 543 617 463 q 610 445 599 449 q 590 452 590 461 q 590 478 621 542 q 625 553 625 558 q 625 571 604 571 q 502 571 418 557 z"},"`":{"x_min":0,"x_max":301,"ha":301,"o":"m 193 543 q 204 543 254 526 q 331 501 396 461 q 410 452 410 445 q 410 433 397 433 q 392 433 381 438 q 338 463 294 481 q 260 496 200 515 q 181 521 179 527 q 177 533 181 539 q 185 543 193 543 z"},"k":{"x_min":0,"x_max":474,"ha":474,"o":"m 270 241 q 297 126 311 95 q 318 76 339 76 q 342 76 347 76 q 381 78 399 78 q 424 78 424 64 q 424 51 404 50 q 333 47 283 35 q 234 21 176 -5 q 167 -9 162 -9 q 151 -9 151 0 q 151 12 162 19 q 190 37 263 60 q 252 96 238 152 l 226 199 l 221 215 q 135 170 114 155 q 83 99 83 85 q 83 69 104 69 q 116 69 137 71 q 153 72 167 72 q 187 72 187 58 q 187 47 174 44 q 170 44 106 40 q 8 32 -60 -4 q -66 -7 -70 -7 q -88 -7 -85 7 q -82 24 4 53 l 7 59 q 59 162 114 252 q 169 339 242 435 q 249 443 249 450 q 249 458 239 458 q 230 458 201 449 q 167 439 161 439 q 150 439 150 453 q 150 463 167 468 q 209 482 274 499 q 317 510 333 510 q 351 510 351 496 q 351 486 341 475 q 340 473 316 442 q 208 309 141 201 q 256 266 379 331 q 359 328 332 322 q 298 314 293 314 q 282 314 282 327 q 282 336 294 341 q 316 349 405 363 q 485 376 540 376 q 562 376 562 363 q 562 350 539 349 q 485 348 456 338 q 396 314 270 241 z"},"u":{"x_min":0,"x_max":432,"ha":432,"o":"m 250 121 q 156 11 75 11 q 42 11 22 28 q 1 47 1 79 q 1 156 113 281 q 122 291 122 296 q 122 308 105 303 q 92 300 51 285 q 41 281 35 281 q 24 281 24 292 q 24 302 37 308 q 66 321 134 342 q 175 354 193 354 q 215 354 215 335 q 215 326 208 316 q 205 313 159 260 q 62 148 62 89 q 62 53 102 53 q 143 53 197 98 q 252 143 303 212 q 339 263 339 282 q 339 295 327 295 q 319 295 260 275 q 250 271 246 271 q 235 271 235 284 q 235 292 245 297 q 282 316 368 339 q 391 345 400 345 q 426 345 426 322 q 426 311 414 288 q 402 269 348 188 q 290 103 290 84 q 290 73 302 73 q 309 73 334 81 q 362 88 369 88 q 383 88 383 76 q 383 64 366 61 q 303 45 240 16 q 228 11 222 11 q 206 11 206 26 q 206 42 250 121 z"},"]":{"x_min":0,"x_max":335,"ha":335,"o":"m -48 -77 q 28 12 124 167 q 238 350 349 585 q 363 616 363 626 q 363 644 348 644 q 342 644 324 640 q 272 631 248 631 q 226 631 226 647 q 226 658 241 662 q 248 663 274 666 q 324 671 374 687 q 418 700 427 700 q 452 700 444 670 q 430 618 351 459 q 262 281 154 114 q 40 -63 19 -88 q 8 -102 -16 -108 q -70 -122 -167 -122 q -195 -122 -195 -106 q -195 -93 -174 -92 q -145 -91 -97 -84 q -49 -79 -48 -77 z"},"U":{"x_min":0,"x_max":592,"ha":592,"o":"m 670 563 q 623 397 516 233 q 454 140 384 73 q 297 -11 210 -11 q 145 -11 105 36 q 73 74 73 126 q 73 194 137 301 q 179 370 291 514 q 301 526 301 532 q 301 539 293 539 q 283 539 236 522 q 226 518 220 518 q 208 518 208 530 q 208 541 222 547 q 249 560 321 579 q 418 604 498 604 q 520 604 520 590 q 520 582 511 577 q 506 574 458 571 q 431 569 404 563 q 323 474 229 339 q 126 189 126 118 q 126 74 156 50 q 183 28 223 28 q 345 28 492 254 q 559 357 604 469 q 623 516 623 528 q 623 546 603 546 q 593 546 563 535 q 528 522 520 522 q 509 522 507 532 q 505 542 518 549 q 550 566 620 584 q 706 605 754 605 q 774 605 774 591 q 774 583 765 579 q 761 578 720 573 q 698 570 670 563 z"},"o":{"x_min":0,"x_max":306,"ha":306,"o":"m 223 344 l 224 344 q 250 354 266 354 q 291 354 304 339 q 317 325 317 301 q 317 260 286 206 q 233 116 149 64 q 98 32 55 32 q 28 32 9 50 q -12 70 -12 104 q -12 178 68 263 q 131 330 184 349 q 196 353 205 353 q 219 353 223 344 z m 173 319 q 143 302 106 262 q 43 194 43 137 q 43 112 58 97 q 73 81 98 81 q 145 81 203 139 q 238 175 256 215 q 269 244 269 267 q 269 289 256 303 q 244 314 227 314 q 218 314 200 307 q 191 304 186 304 q 173 304 173 319 z"},"N":{"x_min":0,"x_max":598,"ha":598,"o":"m 713 564 q 615 432 524 286 q 428 123 384 10 q 376 -11 371 -16 q 366 -22 357 -22 q 344 -22 338 -6 q 332 13 325 75 q 310 213 310 337 q 310 395 313 451 q 313 454 313 457 q 313 469 304 466 q 296 463 267 421 q 166 279 103 158 q 76 105 76 89 q 76 71 95 71 q 99 71 149 78 q 177 81 200 81 q 220 81 220 67 q 220 57 208 54 q 203 53 137 45 q 56 34 -37 -6 q -46 -10 -51 -10 q -63 -10 -63 1 q -63 11 -54 17 q -26 35 24 52 q 49 130 119 250 q 155 313 253 455 q 294 512 296 516 q 298 520 298 523 q 298 536 285 536 q 277 536 240 524 q 208 514 199 514 q 188 514 188 527 q 188 539 236 553 q 321 579 349 579 q 374 579 374 546 q 374 529 372 498 q 367 410 367 323 q 367 185 380 119 q 382 110 387 110 q 392 110 398 123 q 429 194 509 323 q 545 381 635 514 q 641 524 641 530 q 641 539 631 539 q 614 539 558 516 q 551 514 548 514 q 531 514 531 525 q 531 538 549 546 q 588 563 669 584 q 741 603 793 607 q 818 608 818 593 q 818 583 808 580 q 804 579 760 573 q 742 570 713 564 z"},"+":{"x_min":0,"x_max":386,"ha":386,"o":"m 187 192 l 184 182 l 178 164 q 175 152 171 138 q 154 78 142 60 q 128 40 115 40 q 105 40 105 51 q 105 64 117 91 q 133 130 150 190 l 139 190 q 109 189 100 189 q 72 188 62 188 q 17 188 17 206 q 17 214 24 219 q 35 228 51 228 q 57 228 71 226 q 90 224 116 224 q 125 224 153 225 l 161 225 q 164 237 167 249 q 192 339 207 360 q 218 377 232 377 q 241 377 241 368 q 241 362 229 330 q 219 300 208 263 q 206 257 197 227 q 211 228 219 228 q 262 230 282 230 q 329 230 329 212 q 329 192 300 192 q 294 192 278 193 q 266 193 253 193 q 233 193 194 192 z"},"G":{"x_min":0,"x_max":573,"ha":573,"o":"m 539 275 q 489 192 435 71 q 402 -1 404 -15 q 406 -27 424 -27 q 427 -27 466 -24 q 489 -22 506 -22 q 524 -22 524 -35 q 524 -46 513 -49 q 510 -50 449 -55 q 401 -59 346 -76 q 330 -81 259 -108 q 250 -111 246 -111 q 232 -111 232 -98 q 232 -87 245 -81 q 275 -66 320 -52 q 364 59 415 162 q 356 110 285 65 q 185 4 123 4 q 75 4 50 39 q 29 68 29 114 q 29 196 84 292 q 130 372 212 443 q 295 515 397 553 q 467 578 531 578 q 568 578 602 570 q 655 654 674 654 q 686 654 686 641 q 686 635 680 627 q 636 570 613 530 q 598 503 566 429 q 560 415 550 415 q 537 415 537 428 q 537 438 551 470 q 568 510 568 519 q 568 547 516 547 q 442 547 348 492 q 229 421 161 317 q 98 220 98 136 q 98 102 111 82 q 129 57 162 57 q 216 57 322 129 q 405 187 445 229 q 454 239 454 246 q 454 256 442 256 q 424 256 351 236 q 307 224 298 224 q 284 224 284 239 q 284 250 302 256 q 357 274 437 290 q 536 309 584 309 q 604 309 604 295 q 604 280 582 279 q 549 276 539 275 z"},"q":{"x_min":0,"x_max":435,"ha":435,"o":"m 94 -139 q 170 27 227 118 q 135 32 62 32 q 24 32 4 54 q -10 70 -10 95 q -10 160 62 229 q 106 274 163 298 q 213 319 262 319 q 296 319 335 307 q 349 328 360 337 q 375 350 421 358 q 484 370 507 370 q 521 370 521 356 q 521 348 512 344 q 506 342 477 339 q 435 334 418 321 q 396 304 314 163 q 175 -78 175 -110 q 175 -123 196 -123 l 230 -123 q 249 -123 257 -125 q 267 -128 267 -137 q 267 -148 255 -150 q 250 -151 212 -151 q 129 -153 26 -195 q 18 -198 13 -198 q 1 -198 1 -187 q 1 -177 14 -170 q 43 -155 94 -139 z m 270 292 q 180 292 107 210 q 57 154 57 110 q 57 71 97 71 q 136 71 194 117 q 250 161 297 232 q 316 263 316 273 q 316 292 270 292 z"},"d":{"x_min":0,"x_max":428,"ha":428,"o":"m 229 137 q 135 34 55 34 q 21 34 4 56 q -10 73 -10 100 q -10 166 52 232 q 101 283 167 309 q 209 325 254 325 q 294 325 336 310 q 353 331 378 366 q 398 393 414 414 q 454 468 454 475 q 454 485 441 485 q 428 485 371 468 q 364 466 359 466 q 348 466 348 479 q 348 488 358 492 q 382 503 463 520 q 516 532 535 532 q 554 532 554 516 q 554 506 545 496 l 527 474 l 508 450 q 357 261 287 136 q 268 101 268 88 q 268 74 282 74 q 287 74 316 82 q 339 87 347 87 q 361 87 361 74 q 361 63 344 59 q 300 48 272 39 q 261 35 213 14 q 205 11 198 11 q 182 11 182 30 q 182 55 229 137 z m 263 302 q 193 302 125 242 q 53 178 53 115 q 53 95 64 84 q 73 75 89 75 q 119 75 166 108 q 217 144 292 248 q 310 273 310 281 q 310 289 300 294 q 286 302 263 302 z"},"1":{"x_min":0,"x_max":274,"ha":274,"o":"m 32 52 q 66 138 87 178 q 165 328 277 483 q 306 523 306 527 q 306 536 295 536 q 292 536 289 535 l 284 533 q 272 530 213 500 q 204 495 197 495 q 186 495 186 506 q 186 516 198 523 q 252 557 335 583 q 374 596 388 596 q 396 596 402 592 q 409 586 409 578 q 409 569 403 561 q 397 553 371 520 q 312 447 243 334 q 172 220 134 139 q 117 102 117 91 q 117 78 134 78 q 136 78 144 79 q 196 83 212 83 q 232 83 232 68 q 232 55 212 53 q 143 49 92 37 q 53 28 28 18 l -30 -7 q -38 -10 -44 -10 q -57 -10 -57 2 q -57 13 -36 23 q -11 36 32 52 z"},"5":{"x_min":0,"x_max":515,"ha":515,"o":"m 351 548 q 304 493 252 414 q 235 387 235 378 q 235 367 250 367 q 253 367 299 373 q 322 375 347 375 q 406 375 446 355 q 473 341 489 317 q 505 293 505 266 q 505 208 452 146 q 393 78 297 34 q 204 -8 107 -8 q 46 -8 -1 9 q -14 -16 -33 -56 q -41 -71 -50 -71 q -63 -71 -63 -57 q -63 -47 -45 -10 q 2 88 52 148 q 67 166 75 166 q 88 166 88 153 q 88 147 65 116 q 25 62 25 50 q 25 26 111 26 q 200 26 290 75 q 365 115 405 173 q 436 216 436 253 q 436 282 417 305 q 388 340 310 340 q 276 340 185 325 q 174 323 169 323 q 147 323 147 344 q 147 355 175 397 q 209 450 246 497 q 270 528 277 538 q 270 536 267 535 q 254 532 250 532 q 237 532 237 544 q 237 557 255 561 q 312 575 419 589 q 512 602 574 602 q 580 602 587 602 q 629 664 642 664 q 654 664 654 651 q 654 645 618 595 q 585 545 548 457 q 541 438 530 438 q 518 438 518 450 q 518 464 555 545 q 558 552 558 556 q 558 568 535 568 q 503 568 447 562 q 385 555 351 548 z"}}}
